<?xml version="1.0" encoding="UTF-8" standalone="no"?>
<!-- Created with Inkscape (http://www.inkscape.org/) -->

<svg
   width="57.945541mm"
   height="58.176727mm"
   viewBox="0 0 219.00677 219.88055"
   version="1.1"
   id="svg5"
   xml:space="preserve"
   xmlns="http://www.w3.org/2000/svg"
   xmlns:svg="http://www.w3.org/2000/svg"><defs
     id="defs2" /><g
     id="layer1"
     transform="translate(-363.22611,-206.3278)"><path
       style="opacity:1;fill:#ff2f2f;fill-opacity:1;stroke-width:0.277174"
       d="m 398.09979,425.74977 c -5.66385,-0.88106 -12.59775,-3.5935 -16.53843,-6.4696 -10.72736,-7.82932 -16.28162,-16.55731 -17.87255,-28.08507 -0.80759,-5.85166 -0.47412,-146.63871 0.35586,-150.24285 1.26144,-5.47773 3.64377,-11.25004 5.93566,-14.3819 2.86327,-3.91266 4.02978,-5.32642 5.80602,-7.03664 2.03912,-1.96333 4.04185,-3.63619 5.62175,-4.69583 1.83252,-1.22906 5.90474,-3.74061 6.06501,-3.74061 0.0933,0 0.82816,-0.29965 1.63302,-0.66589 4.36337,-1.98549 8.54117,-3.21288 12.88033,-3.7841 5.08098,-0.66887 142.63175,-0.18514 145.66361,0.51227 2.92921,0.6738 6.08509,1.76831 8.91922,3.09338 0.99325,0.46439 1.86455,0.84434 1.9362,0.84434 0.26806,0 3.70385,2.11396 5.57491,3.43011 9.16781,6.44884 15.22262,16.12097 17.54539,28.02741 0.55906,2.86572 0.866,141.83638 0.32379,146.61238 -1.99903,17.60928 -17.11167,33.48901 -34.81894,36.58635 -3.481,0.60889 -145.1154,0.60533 -149.03085,-0.004 z m 131.27393,-37.46053 c 8.77407,-2.49813 15.42702,-9.35812 17.38361,-17.92456 1.15351,-5.05035 0.69293,-105.39008 -0.49952,-108.82175 -3.04645,-8.76719 -10.94242,-15.23865 -20.28882,-16.62855 -4.32942,-0.64383 -105.16166,-0.40473 -107.9435,0.25596 -9.94407,2.36171 -17.77953,9.9587 -19.74528,19.14433 -0.86837,4.05776 -0.76962,102.5299 0.1061,105.81111 2.60804,9.77191 11.24962,17.62748 20.59353,18.72043 4.57923,0.53563 108.39608,0.0118 110.39388,-0.55697 z m -89.32866,-21.55878 c 0,-0.0762 0.0624,-0.13859 0.13858,-0.13859 0.0762,0 0.13859,0.0624 0.13859,0.13859 0,0.0762 -0.0624,0.13858 -0.13859,0.13858 -0.0762,0 -0.13858,-0.0624 -0.13858,-0.13858 z m -7.06862,-8.03639 c -8.93201,-8.86255 -10.13106,-6.7634 21.38507,-37.43844 2.25939,-2.19909 2.25939,-2.19909 -8.27074,-12.45453 -22.82718,-22.2317 -21.66667,-21.05486 -21.34862,-21.64914 0.38413,-0.71776 15.52677,-15.63076 15.87146,-15.63076 0.33047,0 -0.19363,-0.50172 12.83913,12.29088 5.926,5.81678 11.6635,11.43228 12.75,12.47888 1.08651,1.0466 3.16783,3.06044 4.62516,4.47521 2.6497,2.57231 2.6497,2.57231 17.46196,-12.09972 17.75676,-17.58865 17.50109,-17.35452 18.34505,-16.80008 0.34366,0.22577 4.1535,3.88876 8.46632,8.14 7.84148,7.72951 7.84148,7.72951 -7.81251,23.37558 -8.60969,8.60534 -15.60092,15.73196 -15.53605,15.83692 0.0649,0.10496 -0.0942,0.17374 -0.3535,0.15284 -0.2593,-0.0209 -0.51138,0.15339 -0.56019,0.38732 -0.0956,0.45847 20.30798,20.69146 20.74408,20.57061 0.13753,-0.0381 0.21887,0.0492 0.18076,0.19392 -0.0381,0.14477 2.08227,2.43286 4.71196,5.08465 2.62968,2.6518 4.78125,5.01318 4.78125,5.24752 0,0.45097 -13.45568,13.68305 -15.11446,14.8633 -0.97337,0.69256 -0.97337,0.69256 -6.44169,-4.70468 -3.00757,-2.96848 -8.14914,-8.0106 -11.4257,-11.2047 -3.27657,-3.1941 -8.04742,-7.86068 -10.60191,-10.37018 -2.55448,-2.5095 -4.64451,-4.41314 -4.64451,-4.23032 0,0.46289 -7.65739,8.55714 -12.60057,13.31942 -1.2136,1.16919 -4.64363,4.51186 -7.62228,7.42816 -6.76847,6.62677 -11.08432,10.75003 -11.35948,10.8526 -0.11638,0.0434 -3.92787,-3.60848 -8.46999,-8.11526 z m 81.62841,0.27552 c 0,-0.0762 0.0624,-0.13859 0.13859,-0.13859 0.0762,0 0.13859,0.0624 0.13859,0.13859 0,0.0762 -0.0624,0.13858 -0.13859,0.13858 -0.0762,0 -0.13859,-0.0624 -0.13859,-0.13858 z m -8.86957,-25.22284 c 0,-0.0762 0.0624,-0.13858 0.13859,-0.13858 0.0762,0 0.13859,0.0624 0.13859,0.13858 0,0.0762 -0.0624,0.13859 -0.13859,0.13859 -0.0762,0 -0.13859,-0.0624 -0.13859,-0.13859 z m -2.21739,-2.21739 c 0,-0.0762 0.0624,-0.13858 0.13859,-0.13858 0.0762,0 0.13859,0.0624 0.13859,0.13858 0,0.0762 -0.0624,0.13859 -0.13859,0.13859 -0.0762,0 -0.13859,-0.0624 -0.13859,-0.13859 z m -4.43478,-4.43478 c 0,-0.0762 0.0624,-0.13858 0.13859,-0.13858 0.0762,0 0.13858,0.0624 0.13858,0.13858 0,0.0762 -0.0624,0.13859 -0.13858,0.13859 -0.0762,0 -0.13859,-0.0624 -0.13859,-0.13859 z"
       id="path331" /></g></svg>
